<svg xmlns="http://www.w3.org/2000/svg" viewBox="0 0 569.27 90.38"><defs><style>.cls-1{fill:#ffffff;}</style></defs><g id="Layer_2" data-name="Layer 2"><g id="Layer_1-2" data-name="Layer 1"><path class="cls-1" d="M30.69,43.56a36,36,0,0,1,71.94-.37l.23-.22,7.45-7.45A44.61,44.61,0,0,0,22.92,36l6.41,6.4A11.43,11.43,0,0,0,30.69,43.56Z"/><path class="cls-1" d="M112.48,52.58,133.09,32a1.06,1.06,0,0,0-.75-1.81H124a3,3,0,0,0-2.14.89L106.4,46.5A15.85,15.85,0,0,1,84,46.5l-9.88-9.89A11.23,11.23,0,0,0,66,33.31,11.57,11.57,0,0,0,58,36.76l-9.16,9.16a15.83,15.83,0,0,1-22.41,0L11.55,31a3,3,0,0,0-2.14-.89H1.06A1.06,1.06,0,0,0,.31,32L20.36,52a23.87,23.87,0,0,0,2.77,2.38A44.87,44.87,0,0,0,25,60.69h0l.33.83.09.2c.08.21.17.42.26.63l.12.28.24.53c.05.11.1.21.14.31l.24.5.15.32c.08.17.16.33.25.49l.16.32c.08.16.16.32.25.48s.11.2.16.31l.28.5.15.27c.12.22.25.43.37.64l.08.13.45.75.16.24c.1.17.21.34.32.51l.19.29.29.44.22.32.29.41.22.32.29.4.24.31.3.4.23.3.33.41c.07.1.15.19.22.28l.39.47.17.21.57.65.21.25c.13.13.25.27.37.41l.26.28.34.36.28.29.34.34.28.29.34.33.29.28.36.34.29.27.37.33.28.25.42.37.24.21.66.55a2.43,2.43,0,0,1,.25.2l.44.35.3.23.4.3.32.24.39.29.33.23.39.28.34.22.4.28.33.21.43.28.32.2.48.3.27.16.75.43.24.14.54.3.31.16.47.25.34.18.46.22.35.17.45.22.36.16.46.21.36.16.48.2.34.14.55.22.28.11.83.32.19.06.66.23.32.11.53.17.36.11.51.16.37.1.5.15.38.1.51.13.37.09.54.13.35.07.6.13.29.06.9.17.11,0,.8.13.32,0,.59.08L61,89l.55.07.38,0,.55,0,.39,0,.55,0,.39,0,.57,0h.36l.64,0h.31l1,0,1,0h.3l.64,0h.37l.57,0,.39,0,.56,0,.38,0,.56,0,.37,0,.58-.07.35,0,.64-.09.28,0,.9-.15.19,0,.71-.13.34-.07.56-.12.37-.09.52-.12.38-.09.51-.13.38-.11.5-.14.37-.1.52-.16.35-.11.6-.2.26-.08.83-.3.3-.11.54-.2.37-.15.46-.18.38-.16.45-.19.38-.17.44-.2.38-.17.43-.21.37-.18.44-.22.36-.18.48-.26.52-.28.52-.29.37-.22.4-.23.38-.23.37-.23.38-.24L91,82.1l.39-.26.34-.23.39-.27.34-.23.38-.28.32-.24.39-.28.26-.2.8-.63.27-.22.39-.32.28-.24.38-.33.28-.25.37-.33.28-.25.37-.34.27-.26.36-.35a3,3,0,0,0,.25-.25l.38-.37.2-.22c.46-.46.91-.94,1.34-1.43.06-.08.13-.15.19-.22l.36-.41.21-.25.34-.41.22-.26.33-.42.21-.27.32-.42.21-.27.32-.43.18-.26.33-.45a2.76,2.76,0,0,1,.45-.57,1.36,1.36,0,0,0,.43-.58,4.45,4.45,0,0,1,.52-1c.1-.15.19-.31.28-.47l.17-.28.27-.46c.06-.1.12-.2.17-.3s.18-.31.26-.47l.17-.3.25-.47.15-.3c.09-.16.17-.32.25-.49s.09-.18.14-.28l.25-.51c.05-.11.13-.28.19-.39a3.19,3.19,0,0,0,.3-.65,4.5,4.5,0,0,1,.2-.51l.21-.5c0-.11.09-.22.14-.32s.12-.32.19-.49l.09-.23h0a44.35,44.35,0,0,0,1.84-6.07A24.83,24.83,0,0,0,112.48,52.58ZM97,64.05l-.23.37-.27.39c-.1.16-.2.31-.31.46l-.26.37-.48.65-.22.29L94.9,67l-.24.3-.36.44-.25.29-.38.44-.25.28c-.14.15-.28.31-.43.46l-.21.23-.66.68a36,36,0,0,1-50.91,0l-.7-.72-.21-.22-.49-.54-.21-.24c-.16-.19-.33-.37-.48-.56l-.18-.21-.6-.74,0,0c-.44-.55-.85-1.12-1.25-1.69A1,1,0,0,0,37,65.1l-.51-.76-.07-.12c-.18-.28-.36-.56-.53-.84a34.77,34.77,0,0,1-2.36-4.58A24.46,24.46,0,0,0,54.93,52l9.24-9.25A2.85,2.85,0,0,1,66,41.91a2.7,2.7,0,0,1,2.06.78l9.89,9.89a24.36,24.36,0,0,0,17.28,7.14,24.88,24.88,0,0,0,4.39-.39A35.82,35.82,0,0,1,97,64.05Z"/><path class="cls-1" d="M156.2,27.54c7.16,0,13,2.31,17.35,7s6.55,10.92,6.55,18.56V88.92h-9.22V54.84c0-5.58-1.58-10.07-4.61-13.47a15.31,15.31,0,0,0-12-5.09c-6.43,0-11.53,2.06-15.29,6.3s-5.58,10.19-5.58,17.84V89.17h-9.22V32.88l9.22-1.82v8.25C138.49,31.67,146,27.54,156,27.54Z"/><path class="cls-1" d="M239.5,71.17a.3.3,0,0,0-.57-.14c-3.88,7.51-10.41,11.22-19.59,11.22a21,21,0,0,1-14.56-5.82c-4.25-3.88-6.55-9.1-6.92-15.53h51.32l.36-3.39c-.36-8.86-3.27-16-8.85-21.6a28.1,28.1,0,0,0-20.63-8.37,30.37,30.37,0,0,0-21.83,8.74c-6.07,5.82-9.1,13.46-9.1,22.8s3,16.74,9,22.57a29.5,29.5,0,0,0,21.35,8.73,31.19,31.19,0,0,0,17.59-4.85,27.86,27.86,0,0,0,2.45-1.83ZM205.87,40.64a21.76,21.76,0,0,1,13.95-4.85A19.87,19.87,0,0,1,233,40.52c3.76,3.16,6.07,7.64,6.92,13.35H198.35A20.14,20.14,0,0,1,205.87,40.64Z"/><path class="cls-1" d="M341.93,88.64H329.62L308,31.4,286.32,88.64H274.13L245.22.4H261.7l19.39,58.28L303.27.4h9.4l22.18,58.28L354.24.4h16.6Z"/><path class="cls-1" d="M394.88,28.84a31.33,31.33,0,0,1,22.29,8.71,29,29,0,0,1,9.29,22.06c0,8.94-3,16.26-9.17,22.06A31.32,31.32,0,0,1,395,90.38a32.17,32.17,0,0,1-22.64-8.59c-6.15-5.69-9.17-13-9.17-22s3.14-16.37,9.29-22.17S386.17,29,395.11,29Zm-.12,48.07a16.48,16.48,0,0,0,11.84-4.76q4.89-4.7,4.88-12.54T406.6,47.07a17.25,17.25,0,0,0-23.8,0q-4.87,4.71-4.87,12.54t4.87,12.54a16.86,16.86,0,0,0,12.08,4.76Z"/><path class="cls-1" d="M475.57,30.35V45.1h-4.18c-13.82,0-20.67,8.24-20.67,24.84v18.7H435.4V30.7h15.32V40.8c4.65-7.31,11.62-10.91,20.79-10.91A12.51,12.51,0,0,1,475.57,30.35Z"/><path class="cls-1" d="M482.3,88.64V0h15.33V88.64Z"/><path class="cls-1" d="M569.27,88.52H553.94V84q-7.83,6.27-19.16,6.27c-7.66,0-14.28-2.9-20-8.71s-8.47-13.12-8.47-21.94,2.9-16.14,8.59-21.94S527.24,29,534.78,29s14.05,2.09,19.16,6.38V0h15.33ZM537.34,77.26a16.12,16.12,0,0,0,11.49-4.88,16.6,16.6,0,0,0,5-12.54,16.6,16.6,0,0,0-5-12.54,16.11,16.11,0,0,0-11.49-4.87,15.38,15.38,0,0,0-11.61,4.76q-4.53,4.7-4.53,12.54t4.53,12.54a15.57,15.57,0,0,0,11.72,4.64Z"/></g></g></svg>