<?xml version="1.0" encoding="utf-8"?>
<!-- Generator: Adobe Illustrator 24.3.0, SVG Export Plug-In . SVG Version: 6.00 Build 0)  -->
<svg version="1.1" id="Layer_1" xmlns="http://www.w3.org/2000/svg" xmlns:xlink="http://www.w3.org/1999/xlink" x="0px" y="0px"
	 viewBox="0 0 755.6 365.8" style="enable-background:new 0 0 755.6 365.8;" xml:space="preserve">
<style type="text/css">
	.st0{fill:none;stroke:#000000;stroke-width:4;stroke-linecap:round;stroke-linejoin:round;stroke-miterlimit:10;}
	.st1{fill:none;stroke:#000000;stroke-width:4;stroke-miterlimit:10;}
	.st2{fill:none;stroke:#525352;stroke-width:4;stroke-linecap:round;stroke-linejoin:round;stroke-miterlimit:10;}
	.st3{fill:none;stroke:#525352;stroke-width:4;stroke-miterlimit:10;}
	.st4{fill:#525352;}
	.st5{fill:#D8D9D8;}
	.st6{fill:#D6E9E2;}
	.st7{enable-background:new    ;}
	.st8{fill:none;stroke:#C4C4C4;stroke-width:4;stroke-miterlimit:10;}
	.st9{fill:none;stroke:#D8D9D8;stroke-width:4;stroke-miterlimit:10;}
	.st10{fill:none;stroke:#F0EFEF;stroke-width:4;stroke-miterlimit:10;}
	.st11{fill:#F0EFEF;}
	.st12{fill:none;stroke:#F0EFEF;stroke-width:4;stroke-linecap:round;stroke-linejoin:round;stroke-miterlimit:10;}
</style>
<g>
	<polygon class="st6" points="94.1,81.6 84,86 92.9,92.5 	"/>
</g>
<g>
	<polygon class="st6" points="445.6,33.8 440.8,35.9 445,38.9 	"/>
</g>
<g>
	<g>
		<path class="st5" d="M515.4,227.5v-3.3h-3.3v-1.7h3.3v-3.3h1.7v3.3h3.3v1.7h-3.3v3.3H515.4z"/>
	</g>
</g>
<g>
	<g>
		<path class="st6" d="M316,226.4l0.7-4.2l-4.2-0.7l0.4-2.2l4.2,0.7l0.7-4.2l2.2,0.4l-0.7,4.2l4.2,0.7l-0.4,2.2l-4.2-0.7l-0.7,4.2
			L316,226.4z"/>
	</g>
</g>
<g>
	<g>
		<path class="st5" d="M507.1,79.5l0.7-4.2l-4.2-0.7l0.4-2.2l4.2,0.7L509,69l2.2,0.4l-0.7,4.2l4.2,0.7l-0.4,2.2l-4.2-0.7l-0.7,4.2
			L507.1,79.5z"/>
	</g>
</g>
<g>
	<g>
		<path class="st5" d="M271.5,67.5l-2.5-5.1l-4.8,2.4l-1.3-2.7l4.8-2.4l-2.5-5.1l2.5-1.2l2.5,5.1l4.8-2.3l1.3,2.7l-4.8,2.3l2.5,5.1
			L271.5,67.5z"/>
	</g>
</g>
<g>
	<rect x="484.6" y="209.8" transform="matrix(0.866 -0.5 0.5 0.866 -41.0788 272.2842)" class="st6" width="6" height="6"/>
</g>
<g>
	<rect x="193.5" y="296.9" transform="matrix(0.941 -0.3385 0.3385 0.941 -89.942 84.2754)" class="st5" width="6.3" height="6.3"/>
</g>
<g>
	<circle class="st5" cx="144" cy="83.2" r="4"/>
</g>
<g>
	<circle class="st6" cx="667.8" cy="86.3" r="4.2"/>
</g>
<circle class="st5" cx="666.3" cy="152" r="2.4"/>
<polygon class="st5" points="407.2,294.8 404.1,303.1 398.4,296.3 "/>
<polygon class="st6" points="583.2,27.5 580.2,35.8 574.5,29 "/>
<polygon class="st5" points="115,177.8 109.4,177.8 112.2,172.9 "/>
<rect x="356.1" y="3.5" transform="matrix(0.9096 0.4155 -0.4155 0.9096 35.4113 -148.7991)" class="st5" width="7" height="7"/>
<g>
	<path class="st8" d="M446.5,223.5l-11.6-21.2"/>
	<path class="st8" d="M418.7,210.5l11.8,21.7"/>
	<g>
		<path class="st8" d="M481.1,333.2c-4.5-1.3-8.5-4.4-10.9-8.8l-39.4-72.3c-4.9-8.9-1.6-20.1,7.3-24.9c8.9-4.9,20.1-1.6,24.9,7.3
			l39.4,72.3c4.9,8.9,1.6,20.1-7.3,24.9C490.7,334.1,485.7,334.5,481.1,333.2z"/>
	</g>
	<g>
		<path class="st8" d="M368.9,212.3c-41.7-12.3-65.7-56.2-53.4-97.9c12.3-41.7,56.2-65.7,97.9-53.4s65.7,56.2,53.4,97.9
			C454.5,200.7,410.6,224.6,368.9,212.3z M409.8,73.4c-34.9-10.3-71.6,9.8-81.9,44.6s9.8,71.6,44.6,81.9s71.6-9.8,81.9-44.6
			S444.7,83.7,409.8,73.4z"/>
	</g>
</g>
<g>
	<polygon class="st9" points="270.1,194.8 190.3,223.8 155.5,128.1 208.6,108.7 245.1,126.3 	"/>
	<polyline class="st9" points="208.6,108.7 217.9,136.1 245.1,126.3 	"/>
</g>
<g>
	<polygon class="st10" points="145.8,247.1 80.8,301.6 15.3,223.6 58.5,187.3 98.9,191.3 	"/>
	<polyline class="st10" points="58.5,187.3 76.7,209.8 98.9,191.3 	"/>
</g>
<g>
	<polygon class="st10" points="688,310.8 623,256.2 688.5,178.2 731.8,214.5 734.8,254.9 	"/>
	<polyline class="st10" points="731.8,214.5 712.7,236.3 734.8,254.9 	"/>
</g>
<g>
	<polygon class="st9" points="592.2,223.8 512.5,194.8 547.3,99.1 600.4,118.4 617.1,155.4 	"/>
	<polyline class="st9" points="600.4,118.4 590,145.4 617.1,155.4 	"/>
</g>
<circle class="st11" cx="376.3" cy="104.7" r="2.6"/>
<circle class="st11" cx="390.3" cy="118.5" r="2.1"/>
<circle class="st11" cx="390.8" cy="146" r="3.6"/>
<circle class="st11" cx="425.9" cy="123.3" r="2.6"/>
<circle class="st11" cx="361.1" cy="139.1" r="4.9"/>
<line class="st12" x1="430.5" y1="138.7" x2="398.3" y2="170.9"/>
<line class="st12" x1="387.4" y1="131.7" x2="363.4" y2="155.7"/>
<line class="st12" x1="414.5" y1="129.9" x2="407.3" y2="137.1"/>
</svg>
